<svg xmlns="http://www.w3.org/2000/svg" viewBox="0 0 3333 2990" shape-rendering="geometricPrecision" text-rendering="geometricPrecision" image-rendering="optimizeQuality" fill-rule="evenodd" clip-rule="evenodd"><path d="M360 1852c64 30 134 48 208 55 66 6 135 4 208-5-16-117-17-206 12-274 27-62 76-105 158-133-57-53-100-94-127-132-64-90-44-153 102-257 84-59 71-108 56-169-8-31-17-65-19-104-58-54-174-155-313-97-17 7-36-1-43-18s1-36 18-43c150-63 271 12 346 75 13-54 42-116 101-190 27-33 54-69 76-116s39-106 46-186c2-18 18-32 36-30s32 18 30 36c-8 89-27 155-52 209s-55 93-84 129c-69 86-91 153-93 209 2 7 2 14 0 21 1 33 9 62 16 89 22 85 39 153-81 239-104 74-122 114-86 164 24 33 66 73 122 125l7 7c44-109 108-180 188-216 89-40 197-36 322 9 17 6 26 25 20 42s-25 26-42 20c-109-39-200-43-272-11s-128 102-166 213c-2 7-7 12-12 16-1 1-2 3-3 4-5 5-11 8-17 10-94 21-146 56-170 111-25 58-22 142-5 257v8c52 67 123 114 207 146 90 34 195 51 310 57 4 0 7 1 10 2 63 20 152 10 253-17 106-29 226-77 348-129 2-1 5-2 8-2l343-88v-203-3c5-61 21-109 46-144 27-37 64-59 111-66h41c80 1 154 2 211-62 57-65 74-137 68-209-7-76-39-153-78-225-9-16-3-36 13-45s36-3 45 13c43 78 78 164 86 251 8 90-13 179-84 259-78 87-166 86-262 85h-33c-28 4-50 17-65 38-18 25-29 61-33 108v186l316-81h2l358-70c38-25 70-52 96-81 84-94 112-211 101-332-11-125-62-254-135-370-53-83-116-159-184-220-4-4-7-8-9-12-59-146-133-280-253-374s-287-151-534-145c-4 0-8-1-11-2l-11-3c-52 36-92 75-119 119-28 44-43 92-48 143-2 17-15 29-31 30-91 5-160 40-210 96-54 60-86 146-102 245 11 26 17 55 22 83 9 47 18 95 55 107 17 6 27 24 21 42-6 17-24 27-42 21-74-25-87-91-100-157-4-18-7-37-12-53-1 0-1-1-2-2-103-80-232 50-318 137-18 18-34 34-50 48-14 12-35 11-47-3s-11-35 3-47c13-11 29-28 47-46 93-93 227-228 362-169 19-99 55-186 113-251 56-63 131-104 228-115 8-51 26-100 55-145 24-38 55-73 95-106-110-30-217-54-323-70-1 1-3 1-5 2-41 15-75 60-101 115-41 86-62 193-67 255-2 18-18 32-36 30s-32-18-30-36c6-67 29-184 74-278 18-39 41-74 67-101-65-6-130-9-194-7-226 7-449 71-675 231-1 1-2 1-3 2 37 21 69 48 96 79 37 43 62 95 70 149 3 18-10 35-28 38s-35-10-38-28c-6-42-26-82-55-116-30-35-70-64-115-83-1-1-3-1-4-2-47 25-93 52-136 82-60 42-115 90-162 147 115 86 88 181 58 286-29 102-61 216 81 338 14 12 16 33 4 47s-33 16-47 4c-175-149-136-285-102-406 24-83 45-158-38-219-88 98-164 204-212 328-55 139-76 300-44 497 17 104 37 185 78 250 40 64 101 115 201 162zm1986-699c121 110 78 159-10 260-21 24-46 53-70 85-11 15-32 18-46 7-15-11-18-32-7-46 27-36 51-64 73-89 57-66 86-99 17-165-11 5-24 9-41 15s-38 14-62 24c-9 4-18 8-26 12-20 9-39 18-61 25-16 5-31 9-44 14-34 11-52 16-76 17-26 1-51-4-105-16l-26-6c-1 0-2-1-4-1l-110-37c-17-6-27-24-21-42 6-17 24-27 42-21l108 36 25 5c49 10 72 15 89 15 14-1 29-5 58-15 11-4 25-8 45-14 18-5 34-13 51-21 9-4 19-9 29-13 28-12 49-19 66-25 42-15 42-15 36-94-7-84-6-133 17-177 22-43 63-74 136-120 1 0 2-1 2-1 13-8 21-13 28-18 47-29 53-33 55-104 1-38 3-70 16-98 15-32 40-55 87-70 17-6 36 4 42 22 6 17-4 36-22 42-26 8-40 20-46 34-8 17-9 42-10 72-2 108-12 114-86 160-9 6-19 12-27 17l-2 2c-63 40-97 65-113 95-15 29-15 70-9 142 4 45 6 75 3 95zm-535 700c15 11 18 31 8 46-11 15-31 18-46 8-13-9-24-20-33-32-28-37-39-86-36-135 3-48 20-96 48-135 13-18 28-33 44-46 1-1 1-1 2-1 25-19 53-33 85-44s66-17 103-21h167c18 0 33 15 33 33s-15 33-33 33h-163c-31 3-60 8-86 17-25 8-47 20-66 34-1 0-1 1-2 1-12 9-22 20-31 32-21 29-33 65-36 101-2 34 4 67 22 90 5 7 11 13 19 18zm-718-88c-18 5-36-6-40-24-5-18 6-36 24-40 208-53 249-8 344 93l6 6c40 43 67 70 94 84 26 13 57 17 110 16 18 0 33 14 34 33 0 18-14 33-33 34-64 1-104-4-141-24-36-19-66-49-112-97l-6-6c-76-81-109-117-279-74zM2123 638c-7-24-20-44-34-61-17-20-37-33-53-40-17-7-26-26-19-43s26-26 43-19c25 10 55 30 79 58 14 16 27 35 37 56 19-10 42-20 72-32s67-28 114-50c16-8 36-1 44 15s1 36-15 44c-48 23-86 39-117 52-82 34-99 41-108 136v3c-9 101-15 158-102 236-14 12-35 11-47-3s-11-35 3-47c68-61 73-108 80-192v-3c5-53 12-86 25-111zM132 1242c1-18 16-33 34-32s33 16 32 34c-3 109 71 137 154 167 118 43 251 92 269 321 1 18-12 34-30 36-18 1-34-12-36-30-15-187-126-227-226-264-107-39-203-74-198-231zm2146 727c59 33 124 49 194 52 94 4 198-17 307-55 17-6 36 3 42 20s-3 36-20 42c-117 41-228 63-332 59-102-4-196-34-278-96l-176 45c71 92 151 155 245 186 102 34 220 28 357-24 17-6 36 2 43 19 6 17-2 36-19 43-152 57-284 63-401 25-111-37-207-114-288-225-34 14-68 28-102 41 68 101 144 179 223 231 72 47 147 72 221 73 2-1 4-1 7-1 240-13 402-60 503-158 95-92 137-233 141-436l-222 43-443 114zm62 500c-1 0-2 1-3 1l49 440c2 18-11 35-29 37s-35-11-37-29l-50-445c-80-5-160-33-236-83-90-59-175-147-250-262-49 18-97 33-142 46l-24 6c92 172 205 255 304 326 142 104 255 186 246 454-1 18-16 33-34 32s-33-16-32-34c8-233-92-307-219-399-107-78-231-168-331-364 0-1-1-1-1-2-75 13-142 14-198-4-121-6-231-25-326-61-92-35-171-87-230-161-82 11-161 14-236 7-82-8-159-27-230-61-113-53-183-111-230-186-46-74-69-162-87-274-34-210-11-382 47-531 58-148 152-272 260-386 53-66 115-121 183-169 67-47 140-86 215-123C956 76 1191 9 1429 2c235-7 474 45 723 117 262-5 441 57 572 160 129 102 208 242 270 395 70 64 136 143 190 229 78 124 133 264 145 399 12 139-20 273-118 382-31 35-69 67-113 95-4 3-8 5-13 6l-75 15c-3 229-51 389-162 497-108 105-272 157-508 174z" fill-rule="nonzero"/></svg>